<?xml version="1.0" encoding="utf-8"?>
<!-- Generator: Adobe Illustrator 17.0.0, SVG Export Plug-In . SVG Version: 6.00 Build 0)  -->
<!DOCTYPE svg PUBLIC "-//W3C//DTD SVG 1.1//EN" "http://www.w3.org/Graphics/SVG/1.1/DTD/svg11.dtd">
<svg version="1.1" id="Layer_1" xmlns="http://www.w3.org/2000/svg" xmlns:xlink="http://www.w3.org/1999/xlink" x="0px" y="0px"
	 width="1140px" height="403px" viewBox="0 0 1140 403" enable-background="new 0 0 1140 403" xml:space="preserve">
<rect x="2.309" y="-24.106" fill="#BBF6EF" width="33.687" height="33.317"/>
<rect x="37.847" y="-24.106" fill="#C1FAF2" width="33.688" height="33.317"/>
<rect x="73.387" y="-24.106" fill="#C6FFF4" width="33.687" height="33.317"/>
<rect x="108.924" y="-24.106" fill="#CFFFF3" width="33.688" height="33.317"/>
<rect x="144.464" y="-24.106" fill="#D7FFF3" width="33.687" height="33.317"/>
<rect x="180.001" y="-24.106" fill="#E1FDF0" width="33.689" height="33.317"/>
<rect x="215.541" y="-24.106" fill="#E7FFF3" width="33.686" height="33.317"/>
<rect x="251.078" y="-24.106" fill="#E7FFF3" width="33.689" height="33.317"/>
<rect x="286.617" y="-24.106" fill="#D0F9F0" width="33.687" height="33.317"/>
<rect x="322.156" y="-24.106" fill="#D0F9F0" width="33.688" height="33.317"/>
<rect x="357.694" y="-24.106" fill="#BAE2DC" width="33.687" height="33.317"/>
<rect x="393.232" y="-24.106" fill="#9ABFBA" width="33.689" height="33.317"/>
<rect x="428.772" y="-24.106" fill="#9ABFBA" width="33.686" height="33.317"/>
<rect x="464.31" y="-24.106" fill="#779390" width="33.687" height="33.317"/>
<rect x="499.848" y="-24.106" fill="#2D3635" width="33.689" height="33.317"/>
<rect x="535.386" y="-24.106" fill="#101010" width="33.69" height="33.317"/>
<rect x="570.923" y="-24.106" fill="#1B0505" width="33.689" height="33.317"/>
<rect x="606.462" y="-24.106" fill="#1B0505" width="33.689" height="33.317"/>
<rect x="642.002" y="-24.106" fill="#230505" width="33.686" height="33.317"/>
<rect x="677.541" y="-24.106" fill="#211313" width="33.687" height="33.317"/>
<rect x="713.078" y="-24.106" fill="#474240" width="33.689" height="33.317"/>
<rect x="748.616" y="-24.106" fill="#666A67" width="33.691" height="33.317"/>
<rect x="784.155" y="-24.106" fill="#899490" width="33.689" height="33.317"/>
<rect x="819.693" y="-24.106" fill="#AABCB6" width="33.689" height="33.317"/>
<rect x="855.234" y="-24.106" fill="#D9F2E9" width="33.686" height="33.317"/>
<rect x="890.768" y="-24.106" fill="#779390" width="33.692" height="33.317"/>
<rect x="926.311" y="-24.106" fill="#779390" width="33.686" height="33.317"/>
<rect x="961.85" y="-24.106" fill="#666A67" width="33.687" height="33.317"/>
<rect x="997.386" y="-24.106" fill="#666A67" width="33.691" height="33.317"/>
<rect x="1032.923" y="-24.106" fill="#AABCB6" width="33.691" height="33.317"/>
<rect x="1068.463" y="-24.106" fill="#B6BBB3" width="33.686" height="33.317"/>
<rect x="1104.002" y="-24.106" fill="#B6BBB3" width="33.689" height="33.317"/>
<rect x="2.309" y="11.34" fill="#C6FFF4" width="33.687" height="33.316"/>
<rect x="37.847" y="11.34" fill="#D7FFF3" width="33.688" height="33.316"/>
<rect x="73.387" y="11.34" fill="#E1FDF0" width="33.687" height="33.316"/>
<rect x="108.924" y="11.34" fill="#E1FDF0" width="33.688" height="33.316"/>
<rect x="144.464" y="11.34" fill="#DEFFF1" width="33.687" height="33.316"/>
<rect x="180.001" y="11.34" fill="#DEFFF1" width="33.689" height="33.316"/>
<rect x="215.541" y="11.34" fill="#DEFFF1" width="33.686" height="33.316"/>
<rect x="251.078" y="11.34" fill="#DEFFF1" width="33.689" height="33.316"/>
<rect x="286.617" y="11.34" fill="#BAE2DC" width="33.687" height="33.316"/>
<rect x="322.156" y="11.34" fill="#BAE2DC" width="33.688" height="33.316"/>
<rect x="357.694" y="11.34" fill="#9ABFBA" width="33.687" height="33.316"/>
<rect x="393.232" y="11.34" fill="#779390" width="33.689" height="33.316"/>
<rect x="428.772" y="11.34" fill="#2D3635" width="33.686" height="33.316"/>
<rect x="464.31" y="11.34" fill="#2D3635" width="33.687" height="33.316"/>
<rect x="499.848" y="11.34" fill="#1B0505" width="33.689" height="33.316"/>
<rect x="535.386" y="11.34" fill="#230505" width="33.69" height="33.316"/>
<rect x="570.923" y="11.34" fill="#230505" width="33.689" height="33.316"/>
<rect x="606.462" y="11.34" fill="#230505" width="33.689" height="33.316"/>
<rect x="642.002" y="11.34" fill="#230505" width="33.686" height="33.316"/>
<rect x="677.541" y="11.34" fill="#1B0505" width="33.687" height="33.316"/>
<rect x="713.078" y="11.34" fill="#211313" width="33.689" height="33.316"/>
<rect x="748.616" y="11.34" fill="#666A67" width="33.691" height="33.316"/>
<rect x="784.155" y="11.34" fill="#666A67" width="33.689" height="33.316"/>
<rect x="819.693" y="11.34" fill="#AABCB6" width="33.689" height="33.316"/>
<rect x="855.234" y="11.34" fill="#9ABFBA" width="33.686" height="33.316"/>
<rect x="890.768" y="11.34" fill="#9ABFBA" width="33.692" height="33.316"/>
<rect x="926.311" y="11.34" fill="#899490" width="33.686" height="33.316"/>
<rect x="961.85" y="11.34" fill="#D9F2E9" width="33.687" height="33.316"/>
<rect x="997.386" y="11.34" fill="#D2EEDC" width="33.691" height="33.316"/>
<rect x="1032.923" y="11.34" fill="#DEE5D7" width="33.691" height="33.316"/>
<rect x="1068.463" y="11.34" fill="#DEE5D7" width="33.686" height="33.316"/>
<rect x="1104.002" y="11.34" fill="#AB9A93" width="33.689" height="33.316"/>
<rect x="2.309" y="46.786" fill="#DCEDE1" width="33.687" height="33.316"/>
<rect x="37.847" y="46.786" fill="#B6BBB3" width="33.688" height="33.316"/>
<rect x="73.387" y="46.786" fill="#9A9791" width="33.687" height="33.316"/>
<rect x="108.924" y="46.786" fill="#63504E" width="33.688" height="33.316"/>
<rect x="144.464" y="46.786" fill="#4C3538" width="33.687" height="33.316"/>
<rect x="180.001" y="46.786" fill="#513D3F" width="33.689" height="33.316"/>
<rect x="215.541" y="46.786" fill="#C1B8AF" width="33.686" height="33.316"/>
<rect x="251.078" y="46.786" fill="#D2EEDC" width="33.689" height="33.316"/>
<rect x="286.617" y="46.786" fill="#D2EEDC" width="33.687" height="33.316"/>
<rect x="322.156" y="46.786" fill="#D2EEDC" width="33.688" height="33.316"/>
<rect x="357.694" y="46.786" fill="#BAE2DC" width="33.687" height="33.316"/>
<rect x="393.232" y="46.786" fill="#3A5551" width="33.689" height="33.316"/>
<rect x="428.772" y="46.786" fill="#4D726C" width="33.686" height="33.316"/>
<rect x="464.31" y="46.786" fill="#6B857F" width="33.687" height="33.316"/>
<rect x="499.848" y="46.786" fill="#8F9790" width="33.689" height="33.316"/>
<rect x="535.386" y="46.786" fill="#AFA99E" width="33.69" height="33.316"/>
<rect x="570.923" y="46.786" fill="#CAB4A9" width="33.689" height="33.316"/>
<rect x="606.462" y="46.786" fill="#D9BAAD" width="33.689" height="33.316"/>
<rect x="642.002" y="46.786" fill="#B68083" width="33.686" height="33.316"/>
<rect x="677.541" y="46.786" fill="#BA8987" width="33.687" height="33.316"/>
<rect x="713.078" y="46.786" fill="#C1938E" width="33.689" height="33.316"/>
<rect x="748.616" y="46.786" fill="#C1938E" width="33.691" height="33.316"/>
<rect x="784.155" y="46.786" fill="#CBA097" width="33.689" height="33.316"/>
<rect x="819.693" y="46.786" fill="#D6ADA1" width="33.689" height="33.316"/>
<rect x="855.234" y="46.786" fill="#DDB6A9" width="33.686" height="33.316"/>
<rect x="890.768" y="46.786" fill="#DFBAAD" width="33.692" height="33.316"/>
<rect x="926.311" y="46.786" fill="#D9BAAD" width="33.686" height="33.316"/>
<rect x="961.85" y="46.786" fill="#AF7B7C" width="33.687" height="33.316"/>
<rect x="997.386" y="46.786" fill="#C39AA5" width="33.691" height="33.316"/>
<rect x="1032.923" y="46.786" fill="#CFADB3" width="33.691" height="33.316"/>
<rect x="1068.463" y="46.786" fill="#DDBCBF" width="33.686" height="33.316"/>
<rect x="1104.002" y="46.786" fill="#EDD7CE" width="33.689" height="33.316"/>
<rect x="2.309" y="82.233" fill="#A72E09" width="33.687" height="33.316"/>
<rect x="37.847" y="82.233" fill="#DF673A" width="33.688" height="33.316"/>
<rect x="73.387" y="82.233" fill="#C3361B" width="33.687" height="33.316"/>
<rect x="108.924" y="82.233" fill="#C3361B" width="33.688" height="33.316"/>
<rect x="144.464" y="82.233" fill="#A98556" width="33.687" height="33.316"/>
<rect x="180.001" y="82.233" fill="#BA9E75" width="33.689" height="33.316"/>
<rect x="215.541" y="82.233" fill="#C9B38F" width="33.686" height="33.316"/>
<rect x="251.078" y="82.233" fill="#D8C7A7" width="33.689" height="33.316"/>
<rect x="286.617" y="82.233" fill="#E3D4BA" width="33.687" height="33.316"/>
<rect x="322.156" y="82.233" fill="#EBDCC8" width="33.688" height="33.316"/>
<rect x="357.694" y="82.233" fill="#EEDDCF" width="33.687" height="33.316"/>
<rect x="393.232" y="82.233" fill="#EDD7CE" width="33.689" height="33.316"/>
<rect x="428.772" y="82.233" fill="#E7CBC9" width="33.686" height="33.316"/>
<rect x="464.31" y="82.233" fill="#DDBCBF" width="33.687" height="33.316"/>
<rect x="499.848" y="82.233" fill="#CFADB3" width="33.689" height="33.316"/>
<rect x="535.386" y="82.233" fill="#C39AA5" width="33.69" height="33.316"/>
<rect x="570.923" y="82.233" fill="#B2808B" width="33.689" height="33.316"/>
<rect x="606.462" y="82.233" fill="#956E6B" width="33.689" height="33.316"/>
<rect x="642.002" y="82.233" fill="#956E6B" width="33.686" height="33.316"/>
<rect x="677.541" y="82.233" fill="#B9AD92" width="33.687" height="33.316"/>
<rect x="713.078" y="82.233" fill="#D9BAAD" width="33.689" height="33.316"/>
<rect x="748.616" y="82.233" fill="#DFBAAD" width="33.691" height="33.316"/>
<rect x="784.155" y="82.233" fill="#DDB6A9" width="33.689" height="33.316"/>
<rect x="819.693" y="82.233" fill="#D6ADA1" width="33.689" height="33.316"/>
<rect x="855.234" y="82.233" fill="#CBA097" width="33.686" height="33.316"/>
<rect x="890.768" y="82.233" fill="#C1938E" width="33.692" height="33.316"/>
<rect x="926.311" y="82.233" fill="#C1938E" width="33.686" height="33.316"/>
<rect x="961.85" y="82.233" fill="#C1938E" width="33.687" height="33.316"/>
<rect x="997.386" y="82.233" fill="#C1938E" width="33.691" height="33.316"/>
<rect x="1032.923" y="82.233" fill="#BA8987" width="33.691" height="33.316"/>
<rect x="1068.463" y="82.233" fill="#BA8987" width="33.686" height="33.316"/>
<rect x="1104.002" y="82.233" fill="#B68083" width="33.689" height="33.316"/>
<rect x="2.309" y="117.679" fill="#4D726C" width="33.687" height="33.317"/>
<rect x="37.847" y="117.679" fill="#956E6B" width="33.688" height="33.317"/>
<rect x="73.387" y="117.679" fill="#AFA99E" width="33.687" height="33.317"/>
<rect x="108.924" y="117.679" fill="#D3AB82" width="33.688" height="33.317"/>
<rect x="144.464" y="117.679" fill="#B9AD92" width="33.687" height="33.317"/>
<rect x="180.001" y="117.679" fill="#956E6B" width="33.689" height="33.317"/>
<rect x="215.541" y="117.679" fill="#AF7B7C" width="33.686" height="33.317"/>
<rect x="251.078" y="117.679" fill="#B78995" width="33.689" height="33.317"/>
<rect x="286.617" y="117.679" fill="#DDBCBF" width="33.687" height="33.317"/>
<rect x="322.156" y="117.679" fill="#E7CBC9" width="33.688" height="33.317"/>
<rect x="357.694" y="117.679" fill="#EDD7CE" width="33.687" height="33.317"/>
<rect x="393.232" y="117.679" fill="#EEDDCF" width="33.689" height="33.317"/>
<rect x="428.772" y="117.679" fill="#EBDCC8" width="33.686" height="33.317"/>
<rect x="464.31" y="117.679" fill="#E3D4BA" width="33.687" height="33.317"/>
<rect x="499.848" y="117.679" fill="#E1AB95" width="33.689" height="33.317"/>
<rect x="535.386" y="117.679" fill="#DFB8B0" width="33.69" height="33.317"/>
<rect x="570.923" y="117.679" fill="#EFBBB7" width="33.689" height="33.317"/>
<rect x="606.462" y="117.679" fill="#F5BCB2" width="33.689" height="33.317"/>
<rect x="642.002" y="117.679" fill="#E1A7A7" width="33.686" height="33.317"/>
<rect x="677.541" y="117.679" fill="#E1A7A7" width="33.687" height="33.317"/>
<rect x="713.078" y="117.679" fill="#F4A9A3" width="33.689" height="33.317"/>
<rect x="748.616" y="117.679" fill="#D98E8B" width="33.691" height="33.317"/>
<rect x="784.155" y="117.679" fill="#89676A" width="33.689" height="33.317"/>
<rect x="819.693" y="117.679" fill="#B16E6C" width="33.689" height="33.317"/>
<rect x="855.234" y="117.679" fill="#A35B56" width="33.686" height="33.317"/>
<rect x="890.768" y="117.679" fill="#A35B56" width="33.692" height="33.317"/>
<rect x="926.311" y="117.679" fill="#804241" width="33.686" height="33.317"/>
<rect x="961.85" y="117.679" fill="#804747" width="33.687" height="33.317"/>
<rect x="997.386" y="117.679" fill="#6A494A" width="33.691" height="33.317"/>
<rect x="1032.923" y="117.679" fill="#4C3538" width="33.691" height="33.317"/>
<rect x="1068.463" y="117.679" fill="#532020" width="33.686" height="33.317"/>
<rect x="1104.002" y="117.679" fill="#804747" width="33.689" height="33.317"/>
<rect x="2.309" y="153.126" fill="#38615B" width="33.687" height="33.316"/>
<rect x="37.847" y="153.126" fill="#6B857F" width="33.688" height="33.316"/>
<rect x="73.387" y="153.126" fill="#6B857F" width="33.687" height="33.316"/>
<rect x="108.924" y="153.126" fill="#AFA99E" width="33.688" height="33.316"/>
<rect x="144.464" y="153.126" fill="#CAB4A9" width="33.687" height="33.316"/>
<rect x="180.001" y="153.126" fill="#D9BAAD" width="33.689" height="33.316"/>
<rect x="215.541" y="153.126" fill="#EFBBB7" width="33.686" height="33.316"/>
<rect x="251.078" y="153.126" fill="#EFBBB7" width="33.689" height="33.316"/>
<rect x="286.617" y="153.126" fill="#DFB8B0" width="33.687" height="33.316"/>
<rect x="322.156" y="153.126" fill="#C1B8AF" width="33.688" height="33.316"/>
<rect x="357.694" y="153.126" fill="#7E605E" width="33.687" height="33.316"/>
<rect x="393.232" y="153.126" fill="#C1B8AF" width="33.689" height="33.316"/>
<rect x="428.772" y="153.126" fill="#C1B8AF" width="33.686" height="33.316"/>
<rect x="464.31" y="153.126" fill="#DEE5D7" width="33.687" height="33.316"/>
<rect x="499.848" y="153.126" fill="#D2EEDC" width="33.689" height="33.316"/>
<rect x="535.386" y="153.126" fill="#D3AB82" width="33.69" height="33.316"/>
<rect x="570.923" y="153.126" fill="#DFA47A" width="33.689" height="33.316"/>
<rect x="606.462" y="153.126" fill="#E77B4E" width="33.689" height="33.316"/>
<rect x="642.002" y="153.126" fill="#AA2C0C" width="33.686" height="33.316"/>
<rect x="677.541" y="153.126" fill="#4A504C" width="33.687" height="33.316"/>
<rect x="713.078" y="153.126" fill="#3A5551" width="33.689" height="33.316"/>
<rect x="748.616" y="153.126" fill="#38615B" width="33.691" height="33.316"/>
<rect x="784.155" y="153.126" fill="#6B857F" width="33.689" height="33.316"/>
<rect x="819.693" y="153.126" fill="#8F9790" width="33.689" height="33.316"/>
<rect x="855.234" y="153.126" fill="#AFA99E" width="33.686" height="33.316"/>
<rect x="890.768" y="153.126" fill="#CAB4A9" width="33.692" height="33.316"/>
<rect x="926.311" y="153.126" fill="#D9BAAD" width="33.686" height="33.316"/>
<rect x="961.85" y="153.126" fill="#D6ADA1" width="33.687" height="33.316"/>
<rect x="997.386" y="153.126" fill="#C1B8AF" width="33.691" height="33.316"/>
<rect x="1032.923" y="153.126" fill="#A35B56" width="33.691" height="33.316"/>
<rect x="1068.463" y="153.126" fill="#A27A7E" width="33.686" height="33.316"/>
<rect x="1104.002" y="153.126" fill="#F4A9A3" width="33.689" height="33.316"/>
<rect x="2.309" y="188.572" fill="#DC9473" width="33.687" height="33.316"/>
<rect x="37.847" y="188.572" fill="#D1B48A" width="33.688" height="33.316"/>
<rect x="73.387" y="188.572" fill="#BBF6EF" width="33.687" height="33.316"/>
<rect x="108.924" y="188.572" fill="#BBF6EF" width="33.688" height="33.316"/>
<rect x="144.464" y="188.572" fill="#D0F9F0" width="33.687" height="33.316"/>
<rect x="180.001" y="188.572" fill="#D0F9F0" width="33.689" height="33.316"/>
<rect x="215.541" y="188.572" fill="#D0F9F0" width="33.686" height="33.316"/>
<rect x="251.078" y="188.572" fill="#D0F9F0" width="33.689" height="33.316"/>
<rect x="286.617" y="188.572" fill="#DEFFF1" width="33.687" height="33.316"/>
<rect x="322.156" y="188.572" fill="#D0F9F0" width="33.688" height="33.316"/>
<rect x="357.694" y="188.572" fill="#D2EEDC" width="33.687" height="33.316"/>
<rect x="393.232" y="188.572" fill="#DCEDE1" width="33.689" height="33.316"/>
<rect x="428.772" y="188.572" fill="#DCEDE1" width="33.686" height="33.316"/>
<rect x="464.31" y="188.572" fill="#D2EEDC" width="33.687" height="33.316"/>
<rect x="499.848" y="188.572" fill="#D2EEDC" width="33.689" height="33.316"/>
<rect x="535.386" y="188.572" fill="#DCEDE1" width="33.69" height="33.316"/>
<rect x="570.923" y="188.572" fill="#DCEDE1" width="33.689" height="33.316"/>
<rect x="606.462" y="188.572" fill="#9ABFBA" width="33.689" height="33.316"/>
<rect x="642.002" y="188.572" fill="#779390" width="33.686" height="33.316"/>
<rect x="677.541" y="188.572" fill="#779390" width="33.687" height="33.316"/>
<rect x="713.078" y="188.572" fill="#9ABFBA" width="33.689" height="33.316"/>
<rect x="748.616" y="188.572" fill="#BAE2DC" width="33.691" height="33.316"/>
<rect x="784.155" y="188.572" fill="#BAE2DC" width="33.689" height="33.316"/>
<rect x="819.693" y="188.572" fill="#BAE2DC" width="33.689" height="33.316"/>
<rect x="855.234" y="188.572" fill="#D2EEDC" width="33.686" height="33.316"/>
<rect x="890.768" y="188.572" fill="#C1B8AF" width="33.692" height="33.316"/>
<rect x="926.311" y="188.572" fill="#779390" width="33.686" height="33.316"/>
<rect x="961.85" y="188.572" fill="#779390" width="33.687" height="33.316"/>
<rect x="997.386" y="188.572" fill="#302122" width="33.691" height="33.316"/>
<rect x="1032.923" y="188.572" fill="#302122" width="33.691" height="33.316"/>
<rect x="1068.463" y="188.572" fill="#8C0202" width="33.686" height="33.316"/>
<rect x="1104.002" y="188.572" fill="#532020" width="33.689" height="33.316"/>
<rect x="2.309" y="224.018" fill="#BBF6EF" width="33.687" height="33.316"/>
<rect x="37.847" y="224.018" fill="#BBF6EF" width="33.688" height="33.316"/>
<rect x="73.387" y="224.018" fill="#BBF6EF" width="33.687" height="33.316"/>
<rect x="108.924" y="224.018" fill="#BBF6EF" width="33.688" height="33.316"/>
<rect x="144.464" y="224.018" fill="#D0F9F0" width="33.687" height="33.316"/>
<rect x="180.001" y="224.018" fill="#D0F9F0" width="33.689" height="33.316"/>
<rect x="215.541" y="224.018" fill="#D0F9F0" width="33.686" height="33.316"/>
<rect x="251.078" y="224.018" fill="#D0F9F0" width="33.689" height="33.316"/>
<rect x="286.617" y="224.018" fill="#D0F9F0" width="33.687" height="33.316"/>
<rect x="322.156" y="224.018" fill="#DEFFF1" width="33.688" height="33.316"/>
<rect x="357.694" y="224.018" fill="#D2EEDC" width="33.687" height="33.316"/>
<rect x="393.232" y="224.018" fill="#D2EEDC" width="33.689" height="33.316"/>
<rect x="428.772" y="224.018" fill="#DCEDE1" width="33.686" height="33.316"/>
<rect x="464.31" y="224.018" fill="#DCEDE1" width="33.687" height="33.316"/>
<rect x="499.848" y="224.018" fill="#D2EEDC" width="33.689" height="33.316"/>
<rect x="535.386" y="224.018" fill="#DCEDE1" width="33.69" height="33.316"/>
<rect x="570.923" y="224.018" fill="#DCEDE1" width="33.689" height="33.316"/>
<rect x="606.462" y="224.018" fill="#9ABFBA" width="33.689" height="33.316"/>
<rect x="642.002" y="224.018" fill="#9ABFBA" width="33.686" height="33.316"/>
<rect x="677.541" y="224.018" fill="#779390" width="33.687" height="33.316"/>
<rect x="713.078" y="224.018" fill="#9ABFBA" width="33.689" height="33.316"/>
<rect x="748.616" y="224.018" fill="#BAE2DC" width="33.691" height="33.316"/>
<rect x="784.155" y="224.018" fill="#BAE2DC" width="33.689" height="33.316"/>
<rect x="819.693" y="224.018" fill="#BAE2DC" width="33.689" height="33.316"/>
<rect x="855.234" y="224.018" fill="#BAE2DC" width="33.686" height="33.316"/>
<rect x="890.768" y="224.018" fill="#C1B8AF" width="33.692" height="33.316"/>
<rect x="926.311" y="224.018" fill="#474240" width="33.686" height="33.316"/>
<rect x="961.85" y="224.018" fill="#D2EEDC" width="33.687" height="33.316"/>
<rect x="997.386" y="224.018" fill="#302122" width="33.691" height="33.316"/>
<rect x="1032.923" y="224.018" fill="#302122" width="33.691" height="33.316"/>
<rect x="1068.463" y="224.018" fill="#532020" width="33.686" height="33.316"/>
<rect x="1104.002" y="224.018" fill="#532020" width="33.689" height="33.316"/>
<rect x="2.309" y="259.464" fill="#BBF6EF" width="33.687" height="33.319"/>
<rect x="37.847" y="259.464" fill="#BBF6EF" width="33.688" height="33.319"/>
<rect x="73.387" y="259.464" fill="#BBF6EF" width="33.687" height="33.319"/>
<rect x="108.924" y="259.464" fill="#BBF6EF" width="33.688" height="33.319"/>
<rect x="144.464" y="259.464" fill="#D0F9F0" width="33.687" height="33.319"/>
<rect x="180.001" y="259.464" fill="#D0F9F0" width="33.689" height="33.319"/>
<rect x="215.541" y="259.464" fill="#D0F9F0" width="33.686" height="33.319"/>
<rect x="251.078" y="259.464" fill="#DEFFF1" width="33.689" height="33.319"/>
<rect x="286.617" y="259.464" fill="#DEFFF1" width="33.687" height="33.319"/>
<rect x="322.156" y="259.464" fill="#DEFFF1" width="33.688" height="33.319"/>
<rect x="357.694" y="259.464" fill="#DEFFF1" width="33.687" height="33.319"/>
<rect x="393.232" y="259.464" fill="#DEFFF1" width="33.689" height="33.319"/>
<rect x="428.772" y="259.464" fill="#DCEDE1" width="33.686" height="33.319"/>
<rect x="464.31" y="259.464" fill="#DCEDE1" width="33.687" height="33.319"/>
<rect x="499.848" y="259.464" fill="#D2EEDC" width="33.689" height="33.319"/>
<rect x="535.386" y="259.464" fill="#D2EEDC" width="33.69" height="33.319"/>
<rect x="570.923" y="259.464" fill="#CEA181" width="33.689" height="33.319"/>
<rect x="606.462" y="259.464" fill="#9ABFBA" width="33.689" height="33.319"/>
<rect x="642.002" y="259.464" fill="#779390" width="33.686" height="33.319"/>
<rect x="677.541" y="259.464" fill="#9ABFBA" width="33.687" height="33.319"/>
<rect x="713.078" y="259.464" fill="#779390" width="33.689" height="33.319"/>
<rect x="748.616" y="259.464" fill="#BAE2DC" width="33.691" height="33.319"/>
<rect x="784.155" y="259.464" fill="#BAE2DC" width="33.689" height="33.319"/>
<rect x="819.693" y="259.464" fill="#D2EEDC" width="33.689" height="33.319"/>
<rect x="855.234" y="259.464" fill="#D2EEDC" width="33.686" height="33.319"/>
<rect x="890.768" y="259.464" fill="#D2EEDC" width="33.692" height="33.319"/>
<rect x="926.311" y="259.464" fill="#D2EEDC" width="33.686" height="33.319"/>
<rect x="961.85" y="259.464" fill="#779390" width="33.687" height="33.319"/>
<rect x="997.386" y="259.464" fill="#D2EEDC" width="33.691" height="33.319"/>
<rect x="1032.923" y="259.464" fill="#302122" width="33.691" height="33.319"/>
<rect x="1068.463" y="259.464" fill="#8C0202" width="33.686" height="33.319"/>
<rect x="1104.002" y="259.464" fill="#532020" width="33.689" height="33.319"/>
<rect x="2.309" y="294.91" fill="#D2EEDC" width="33.687" height="33.317"/>
<rect x="37.847" y="294.91" fill="#E1FDF0" width="33.688" height="33.317"/>
<rect x="73.387" y="294.91" fill="#E1FDF0" width="33.687" height="33.317"/>
<rect x="108.924" y="294.91" fill="#D0F9F0" width="33.688" height="33.317"/>
<rect x="144.464" y="294.91" fill="#BAE2DC" width="33.687" height="33.317"/>
<rect x="180.001" y="294.91" fill="#BAE2DC" width="33.689" height="33.317"/>
<rect x="215.541" y="294.91" fill="#9ABFBA" width="33.686" height="33.317"/>
<rect x="251.078" y="294.91" fill="#9ABFBA" width="33.689" height="33.317"/>
<rect x="286.617" y="294.91" fill="#9ABFBA" width="33.687" height="33.317"/>
<rect x="322.156" y="294.91" fill="#9ABFBA" width="33.688" height="33.317"/>
<rect x="357.694" y="294.91" fill="#9ABFBA" width="33.687" height="33.317"/>
<rect x="393.232" y="294.91" fill="#779390" width="33.689" height="33.317"/>
<rect x="428.772" y="294.91" fill="#779390" width="33.686" height="33.317"/>
<rect x="464.31" y="294.91" fill="#2D3635" width="33.687" height="33.317"/>
<rect x="499.848" y="294.91" fill="#2D3635" width="33.689" height="33.317"/>
<rect x="535.386" y="294.91" fill="#2D3635" width="33.69" height="33.317"/>
<rect x="570.923" y="294.91" fill="#CEA181" width="33.689" height="33.317"/>
<rect x="606.462" y="294.91" fill="#CEA181" width="33.689" height="33.317"/>
<rect x="642.002" y="294.91" fill="#CEA181" width="33.686" height="33.317"/>
<rect x="677.541" y="294.91" fill="#C1B8AF" width="33.687" height="33.317"/>
<rect x="713.078" y="294.91" fill="#C1B8AF" width="33.689" height="33.317"/>
<rect x="748.616" y="294.91" fill="#C1B8AF" width="33.691" height="33.317"/>
<rect x="784.155" y="294.91" fill="#9ABFBA" width="33.689" height="33.317"/>
<rect x="819.693" y="294.91" fill="#9ABFBA" width="33.689" height="33.317"/>
<rect x="855.234" y="294.91" fill="#9ABFBA" width="33.686" height="33.317"/>
<rect x="890.768" y="294.91" fill="#F07D5A" width="33.692" height="33.317"/>
<rect x="926.311" y="294.91" fill="#F07D5A" width="33.686" height="33.317"/>
<rect x="961.85" y="294.91" fill="#F07D5A" width="33.687" height="33.317"/>
<rect x="997.386" y="294.91" fill="#CD140A" width="33.691" height="33.317"/>
<rect x="1032.923" y="294.91" fill="#CD140A" width="33.691" height="33.317"/>
<rect x="1068.463" y="294.91" fill="#CD140A" width="33.686" height="33.317"/>
<rect x="1104.002" y="294.91" fill="#CD140A" width="33.689" height="33.317"/>
<rect x="2.309" y="330.358" fill="#D2EEDC" width="33.687" height="33.317"/>
<rect x="37.847" y="330.358" fill="#D2EEDC" width="33.688" height="33.317"/>
<rect x="73.387" y="330.358" fill="#E1FDF0" width="33.687" height="33.317"/>
<rect x="108.924" y="330.358" fill="#D0F9F0" width="33.688" height="33.317"/>
<rect x="144.464" y="330.358" fill="#D0F9F0" width="33.687" height="33.317"/>
<rect x="180.001" y="330.358" fill="#D0F9F0" width="33.689" height="33.317"/>
<rect x="215.541" y="330.358" fill="#D0F9F0" width="33.686" height="33.317"/>
<rect x="251.078" y="330.358" fill="#BAE2DC" width="33.689" height="33.317"/>
<rect x="286.617" y="330.358" fill="#9ABFBA" width="33.687" height="33.317"/>
<rect x="322.156" y="330.358" fill="#9ABFBA" width="33.688" height="33.317"/>
<rect x="357.694" y="330.358" fill="#9ABFBA" width="33.687" height="33.317"/>
<rect x="393.232" y="330.358" fill="#9ABFBA" width="33.689" height="33.317"/>
<rect x="428.772" y="330.358" fill="#779390" width="33.686" height="33.317"/>
<rect x="464.31" y="330.358" fill="#779390" width="33.687" height="33.317"/>
<rect x="499.848" y="330.358" fill="#779390" width="33.689" height="33.317"/>
<rect x="535.386" y="330.358" fill="#2D3635" width="33.69" height="33.317"/>
<rect x="570.923" y="330.358" fill="#EFBBB7" width="33.689" height="33.317"/>
<rect x="606.462" y="330.358" fill="#EFBBB7" width="33.689" height="33.317"/>
<rect x="642.002" y="330.358" fill="#CEA181" width="33.686" height="33.317"/>
<rect x="677.541" y="330.358" fill="#CEA181" width="33.687" height="33.317"/>
<rect x="713.078" y="330.358" fill="#4D1A1A" width="33.689" height="33.317"/>
<rect x="748.616" y="330.358" fill="#4D1A1A" width="33.691" height="33.317"/>
<rect x="784.155" y="330.358" fill="#F07D5A" width="33.689" height="33.317"/>
<rect x="819.693" y="330.358" fill="#9ABFBA" width="33.689" height="33.317"/>
<rect x="855.234" y="330.358" fill="#9ABFBA" width="33.686" height="33.317"/>
<rect x="890.768" y="330.358" fill="#F07D5A" width="33.692" height="33.317"/>
<rect x="926.311" y="330.358" fill="#F07D5A" width="33.686" height="33.317"/>
<rect x="961.85" y="330.358" fill="#F07D5A" width="33.687" height="33.317"/>
<rect x="997.386" y="330.358" fill="#F56445" width="33.691" height="33.317"/>
<rect x="1032.923" y="330.358" fill="#F56445" width="33.691" height="33.317"/>
<rect x="1068.463" y="330.358" fill="#F56445" width="33.686" height="33.317"/>
<rect x="1104.002" y="330.358" fill="#CD140A" width="33.689" height="33.317"/>
<rect x="2.309" y="365.804" fill="#EFBBB7" width="33.687" height="33.317"/>
<rect x="37.847" y="365.804" fill="#D2EEDC" width="33.688" height="33.317"/>
<rect x="73.387" y="365.804" fill="#D9F2E9" width="33.687" height="33.317"/>
<rect x="108.924" y="365.804" fill="#804241" width="33.688" height="33.317"/>
<rect x="144.464" y="365.804" fill="#A35B56" width="33.687" height="33.317"/>
<rect x="180.001" y="365.804" fill="#B16E6C" width="33.689" height="33.317"/>
<rect x="215.541" y="365.804" fill="#89676A" width="33.686" height="33.317"/>
<rect x="251.078" y="365.804" fill="#745458" width="33.689" height="33.317"/>
<rect x="286.617" y="365.804" fill="#6D4C4F" width="33.687" height="33.317"/>
<rect x="322.156" y="365.804" fill="#64280E" width="33.688" height="33.317"/>
<rect x="357.694" y="365.804" fill="#260500" width="33.687" height="33.317"/>
<rect x="393.232" y="365.804" fill="#E12415" width="33.689" height="33.317"/>
<rect x="428.772" y="365.804" fill="#A98556" width="33.686" height="33.317"/>
<rect x="464.31" y="365.804" fill="#BA9E75" width="33.687" height="33.317"/>
<rect x="499.848" y="365.804" fill="#C9B38F" width="33.689" height="33.317"/>
<rect x="535.386" y="365.804" fill="#D8C7A7" width="33.69" height="33.317"/>
<rect x="570.923" y="365.804" fill="#D3AB82" width="33.689" height="33.317"/>
<rect x="606.462" y="365.804" fill="#DFA47A" width="33.689" height="33.317"/>
<rect x="642.002" y="365.804" fill="#E77B4E" width="33.686" height="33.317"/>
<rect x="677.541" y="365.804" fill="#4A504C" width="33.687" height="33.317"/>
<rect x="713.078" y="365.804" fill="#3A5551" width="33.689" height="33.317"/>
<rect x="748.616" y="365.804" fill="#38615B" width="33.691" height="33.317"/>
<rect x="784.155" y="365.804" fill="#38615B" width="33.689" height="33.317"/>
<rect x="819.693" y="365.804" fill="#4D726C" width="33.689" height="33.317"/>
<rect x="855.234" y="365.804" fill="#6B857F" width="33.686" height="33.317"/>
<rect x="890.768" y="365.804" fill="#6B857F" width="33.692" height="33.317"/>
<rect x="926.311" y="365.804" fill="#6B857F" width="33.686" height="33.317"/>
<rect x="961.85" y="365.804" fill="#6B857F" width="33.687" height="33.317"/>
<rect x="997.386" y="365.804" fill="#AFA99E" width="33.691" height="33.317"/>
<rect x="1032.923" y="365.804" fill="#CAB4A9" width="33.691" height="33.317"/>
<rect x="1068.463" y="365.804" fill="#D9BAAD" width="33.686" height="33.317"/>
<rect x="1104.002" y="365.804" fill="#DFBAAD" width="33.689" height="33.317"/>
<rect x="2.309" y="401.248" fill="#E7FFF3" width="33.687" height="33.317"/>
<rect x="37.847" y="401.248" fill="#E7FFF3" width="33.688" height="33.317"/>
<rect x="73.387" y="401.248" fill="#E7FFF3" width="33.687" height="33.317"/>
<rect x="108.924" y="401.248" fill="#E7FFF3" width="33.688" height="33.317"/>
<rect x="144.464" y="401.248" fill="#E7FFF3" width="33.687" height="33.317"/>
<rect x="180.001" y="401.248" fill="#E7FFF3" width="33.689" height="33.317"/>
<rect x="215.541" y="401.248" fill="#E7FFF3" width="33.686" height="33.317"/>
<rect x="251.078" y="401.248" fill="#E7FFF3" width="33.689" height="33.317"/>
<rect x="286.617" y="401.248" fill="#E7FFF3" width="33.687" height="33.317"/>
<rect x="322.156" y="401.248" fill="#E7FFF3" width="33.688" height="33.317"/>
<rect x="357.694" y="401.248" fill="#E7FFF3" width="33.687" height="33.317"/>
<rect x="393.232" y="401.248" fill="#E7FFF3" width="33.689" height="33.317"/>
<rect x="428.772" y="401.248" fill="#E7FFF3" width="33.686" height="33.317"/>
<rect x="464.31" y="401.248" fill="#E7FFF3" width="33.687" height="33.317"/>
<rect x="499.848" y="401.248" fill="#E7FFF3" width="33.689" height="33.317"/>
<rect x="535.386" y="401.248" fill="#E7FFF3" width="33.69" height="33.317"/>
<rect x="570.923" y="401.248" fill="#E7FFF3" width="33.689" height="33.317"/>
<rect x="606.462" y="401.248" fill="#E7FFF3" width="33.689" height="33.317"/>
<rect x="642.002" y="401.248" fill="#E7FFF3" width="33.686" height="33.317"/>
<rect x="677.541" y="401.248" fill="#E7FFF3" width="33.687" height="33.317"/>
<rect x="713.078" y="401.248" fill="#E7FFF3" width="33.689" height="33.317"/>
<rect x="748.616" y="401.248" fill="#DEE5D7" width="33.691" height="33.317"/>
<rect x="784.155" y="401.248" fill="#D2EEDC" width="33.689" height="33.317"/>
<rect x="819.693" y="401.248" fill="#F5BCB2" width="33.689" height="33.317"/>
<rect x="855.234" y="401.248" fill="#D8C7A7" width="33.686" height="33.317"/>
<rect x="890.768" y="401.248" fill="#D3AB82" width="33.692" height="33.317"/>
<rect x="926.311" y="401.248" fill="#DFA47A" width="33.686" height="33.317"/>
<rect x="961.85" y="401.248" fill="#B68083" width="33.687" height="33.317"/>
<rect x="997.386" y="401.248" fill="#BA8987" width="33.691" height="33.317"/>
<rect x="1032.923" y="401.248" fill="#C1938E" width="33.691" height="33.317"/>
<rect x="1068.463" y="401.248" fill="#CBA097" width="33.686" height="33.317"/>
<rect x="1104.002" y="401.248" fill="#DDB6A9" width="33.689" height="33.317"/>
</svg>
