<?xml version="1.0" encoding="utf-8"?>
<!-- Generator: Adobe Illustrator 17.0.0, SVG Export Plug-In . SVG Version: 6.00 Build 0)  -->
<!DOCTYPE svg PUBLIC "-//W3C//DTD SVG 1.1//EN" "http://www.w3.org/Graphics/SVG/1.1/DTD/svg11.dtd">
<svg version="1.1" id="Layer_1" xmlns="http://www.w3.org/2000/svg" xmlns:xlink="http://www.w3.org/1999/xlink" x="0px" y="0px"
	 width="93.25px" height="96.25px" viewBox="0 0 93.25 96.25" enable-background="new 0 0 93.25 96.25" xml:space="preserve">
<polygon opacity="0.3" fill="none" stroke="#86E900" stroke-width="0.496" stroke-miterlimit="10" points="36.322,90.121 
	7.34,49.578 36.948,9.485 84.23,25.248 83.843,75.085 "/>
<polygon opacity="0.5" fill="none" stroke="#00617F" stroke-width="0.496" stroke-miterlimit="10" points="11.445,72.825 
	14.167,23.063 62.34,10.277 89.391,52.138 57.936,90.795 "/>
<polygon opacity="0.5" fill="none" stroke="#86E900" stroke-width="0.3568" stroke-miterlimit="10" points="26.198,70.21 
	21.023,34.738 53.164,18.857 78.202,44.513 61.537,76.251 "/>
<g>
	<defs>
		<polygon id="SVGID_1_" points="7.205,49.448 71.086,8.011 75.031,84.053 		"/>
	</defs>
	<clipPath id="SVGID_2_">
		<use xlink:href="#SVGID_1_"  overflow="visible"/>
	</clipPath>
	<g clip-path="url(#SVGID_2_)">
		<g>
			<path fill="#F05A28" d="M45.965,46.012l-48.776,2.773c-0.306-5.388,0.156-9.989,1.53-15.208L45.965,46.012z"/>
			<path fill="#2E3191" d="M45.965,46.012L0.433,63.722c-1.956-5.029-2.938-9.548-3.244-14.937L45.965,46.012z"/>
			<path fill="#DFDFDF" d="M45.965,46.012L8.134,76.926c-3.415-4.179-5.746-8.175-7.702-13.204L45.965,46.012z"/>
			<path fill="#262261" d="M45.965,46.012L19.538,87.103c-4.539-2.92-7.99-5.999-11.404-10.177L45.965,46.012z"/>
			<path fill="#26A9E0" d="M45.965,46.012L33.53,93.258c-5.218-1.374-9.453-3.236-13.991-6.154L45.965,46.012z"/>
			<path fill="#BFBFBF" d="M45.965,46.012l2.774,48.777c-5.388,0.306-9.99-0.158-15.209-1.531L45.965,46.012z"/>
			<path fill="#202020" d="M45.965,46.012l17.711,45.532c-5.029,1.956-9.549,2.937-14.937,3.245L45.965,46.012z"/>
			<path fill="#D6DE23" d="M45.965,46.012l30.914,37.831c-4.179,3.415-8.174,5.745-13.203,7.702L45.965,46.012z"/>
			<path fill="#29B473" d="M45.965,46.012l41.092,26.427c-2.92,4.539-5.999,7.99-10.178,11.404L45.965,46.012z"/>
			<path fill="#8BC53F" d="M45.965,46.012l47.246,12.435c-1.374,5.219-3.236,9.452-6.154,13.991L45.965,46.012z"/>
			<path fill="#F6921E" d="M45.965,46.012l48.777-2.774c0.306,5.388-0.157,9.989-1.531,15.209L45.965,46.012z"/>
			<path fill="#C1B49A" d="M45.965,46.012l45.532-17.71c1.957,5.028,2.938,9.548,3.245,14.937L45.965,46.012z"/>
			<path fill="#FAAF40" d="M45.965,46.012l37.831-30.914c3.414,4.179,5.745,8.174,7.701,13.204L45.965,46.012z"/>
			<path fill="#8CD0C4" d="M45.965,46.012L72.392,4.92c4.538,2.92,7.989,5.999,11.404,10.178L45.965,46.012z"/>
			<path fill="#202020" d="M45.965,46.012L58.4-1.234c5.22,1.374,9.453,3.236,13.993,6.154L45.965,46.012z"/>
			<path fill="#D6DE23" d="M45.965,46.012L43.192-2.766c5.387-0.305,9.99,0.158,15.208,1.532L45.965,46.012z"/>
			<path fill="#404040" d="M45.965,46.012L28.255,0.48c5.029-1.956,9.548-2.938,14.937-3.245L45.965,46.012z"/>
			<path fill="#808080" d="M45.965,46.012L15.051,8.181c4.179-3.415,8.174-5.745,13.204-7.701L45.965,46.012z"/>
			<path fill="#EC297B" d="M45.965,46.012L4.874,19.585c2.919-4.539,5.999-7.99,10.177-11.404L45.965,46.012z"/>
			<path d="M45.965,46.012L-1.281,33.577c1.374-5.22,3.236-9.453,6.156-13.992L45.965,46.012z"/>
		</g>
		<g>
			<g id="XMLID_3_">
				<path fill="none" d="M4.039,37.363c-0.573,2.794-0.874,5.686-0.874,8.649c0,7.995,2.193,15.479,6.009,21.882"/>
				<path fill="#F05A28" d="M13.122,18.567C8.669,23.89,5.486,30.31,4.039,37.363l41.926,8.649"/>
				<path fill="none" d="M78.754,18.503C70.903,9.154,59.128,3.212,45.964,3.212c-7.409,0-14.378,1.883-20.456,5.196"/>
				<path fill="#BBBDBF" d="M25.509,8.407c-4.744,2.587-8.945,6.045-12.387,10.16l32.843,27.444L25.509,8.407z"/>
				<path fill="#8BC53F" d="M45.964,46.012L9.174,67.893c2.235,3.75,5.028,7.13,8.263,10.025"/>
				<path opacity="0.9" fill="#D1EADE" d="M35.251,87.46c3.424,0.883,7.014,1.352,10.713,1.352c16.171,0,30.248-8.968,37.526-22.203
					c3.362-6.11,5.274-13.13,5.274-20.597c0-10.475-3.763-20.069-10.01-27.509l-32.79,27.509"/>
				<path fill="#FFDD15" d="M45.964,46.012"/>
				<path fill="#FFDD15" d="M83.49,66.609"/>
				<path fill="#D6DE23" d="M17.437,77.918c5.015,4.488,11.095,7.81,17.814,9.542l10.713-41.448L17.437,77.918z"/>
			</g>
		</g>
		<g>
			<path fill="#26A9E0" d="M45.965,46.012l-15.65-21.54c4.759-3.458,9.768-5.085,15.65-5.085V46.012z"/>
			<path d="M45.965,46.012l-25.322-8.228c1.817-5.594,4.913-9.855,9.672-13.312L45.965,46.012z"/>
			<path fill="#8CD0C4" d="M45.965,46.012l-25.322,8.228c-1.818-5.594-1.818-10.861,0-16.455L45.965,46.012z"/>
			<path fill="#BFBFBF" d="M45.965,46.012l-15.65,21.54c-4.759-3.457-7.855-7.718-9.672-13.312L45.965,46.012z"/>
			<path fill="#202020" d="M45.965,46.012v26.625c-5.882,0-10.892-1.627-15.65-5.085L45.965,46.012z"/>
			<path fill="#9F9F9F" d="M45.965,46.012l15.649,21.54c-4.758,3.458-9.768,5.085-15.649,5.085V46.012z"/>
			<path fill="#8A5D3B" d="M45.965,46.012l25.322,8.228c-1.818,5.594-4.914,9.855-9.672,13.312L45.965,46.012z"/>
			<path fill="#C1B49A" d="M45.965,46.012l25.322-8.228c1.818,5.594,1.818,10.861,0,16.455L45.965,46.012z"/>
			<path fill="#9E1F63" d="M45.965,46.012l15.649-21.54c4.759,3.457,7.855,7.718,9.672,13.312L45.965,46.012z"/>
			<path d="M45.965,46.012V19.387c5.881,0,10.891,1.627,15.649,5.085L45.965,46.012z"/>
		</g>
		<g>
			<path fill="#D6DE23" d="M45.965,46.012l-20.918-9.313c3.739-8.399,11.724-13.584,20.918-13.584V46.012z"/>
			<path d="M45.965,46.012L27.209,59.145c-4.744-6.775-5.526-14.891-2.162-22.447L45.965,46.012z"/>
			<path fill="#606060" d="M45.965,46.012l-1.198,22.866c-7.338-0.385-13.344-3.714-17.558-9.733L45.965,46.012z"/>
			<path fill="#F6921E" d="M45.965,46.012L61.58,62.758c-4.707,4.39-10.386,6.457-16.814,6.12L45.965,46.012z"/>
			<path fill="#FAAF40" d="M45.965,46.012l22.674,3.187c-0.767,5.46-3.026,9.799-7.059,13.559"/>
			<path fill="#9F9F9F" d="M45.965,46.012l20.752-9.677c1.94,4.16,2.561,8.318,1.922,12.863L45.965,46.012z"/>
			<path fill="#404040" d="M45.965,46.012l14.41-17.795c2.85,2.308,4.792,4.794,6.342,8.118L45.965,46.012z"/>
			<path fill="#808080" d="M45.965,46.012l7.455-21.65c2.606,0.898,4.812,2.121,6.955,3.855L45.965,46.012z"/>
			<path fill="#DFDFDF" d="M45.965,46.012l2.394-22.772c1.823,0.191,3.327,0.525,5.061,1.122L45.965,46.012z"/>
			<path fill="#8BC53F" d="M45.965,46.012V23.114c0.911,0,1.488,0.03,2.394,0.125L45.965,46.012z"/>
		</g>
	</g>
</g>
<polygon opacity="0.5" fill="none" stroke="#86E900" stroke-width="0.496" stroke-miterlimit="10" points="4.899,67.079 
	7.621,17.316 55.794,4.531 82.845,46.391 51.389,85.049 "/>
</svg>
